# xmcd
# 
# Track frame offsets:
#     150
#     16356
#     37774
#     53995
#     68758
#     90244
#     108727
#     122738
#     127670
#     150215
#     170062
#     187043
#     212117
# 
# Disc length: 3009
# 
# Revision: 3
# Processed by: cddbd v1.5.2PL0 Copyright (c) Steve Scherf et al.
# Submitted via: BonkEnc v1.0
# 
DISCID=a30bbf0d
DTITLE=Zeca Baleiro - Baladas do asfalto
DYEAR=2005
DGENRE=MPB
TTITLE0=Versos Perdidos
TTITLE1=Balada do Asfalto
TTITLE2=Cachorro Doido
TTITLE3=Meu Amor Minha Flor Minha Menina
TTITLE4=Flores no Asfalto
TTITLE5=Alma Nova
TTITLE6=Balada do Céu Negro
TTITLE7=Mulher Amada
TTITLE8=Cigarro
TTITLE9=Muzak
TTITLE10=Quando Ela Dorme em Minha Casa
TTITLE11=Amargo
TTITLE12=O Silêncio
EXTD=
EXTT0=
EXTT1=
EXTT2=
EXTT3=
EXTT4=
EXTT5=
EXTT6=
EXTT7=
EXTT8=
EXTT9=
EXTT10=
EXTT11=
EXTT12=
PLAYORDER=
